Coordinates
version=1
nRows=32
nColumns=22
inDegrees=yes

Units are S.I. units (second, meters, Newtons, ...)
If the header above contains a line with 'inDegrees', this indicates whether rotational values are in degrees (yes) or radians (no).

endheader
time	pelvis_tilt	pelvis_list	pelvis_rotation	pelvis_tx	pelvis_ty	pelvis_tz	hip_flexion_r	hip_adduction_r	hip_rotation_r	knee_angle_r	ankle_angle_r	subtalar_angle_r	hip_flexion_l	hip_adduction_l	hip_rotation_l	knee_angle_l	ankle_angle_l	subtalar_angle_l	lumbar_extension	lumbar_bending	lumbar_rotation
      2.47000000	     -1.64033561	     -5.31066799	    -45.19672309	     -0.39571882	      1.00988524	      0.05383924	     10.27008532	     13.21372053	     -7.08674560	    -19.65447652	      6.55569683	     -8.10165860	     15.50730727	    -10.66776640	     -1.90465130	    -62.62841361	      4.24827770	      7.14298045	    -13.34157206	      5.51279806	      3.85487941
      2.48000000	     -1.78424926	     -5.32497125	    -46.00940096	     -0.39156069	      1.01054613	      0.05999785	      9.49916707	     13.51011058	     -6.29121670	    -19.11543929	      6.69174242	     -8.12749604	     16.39538685	    -10.89671472	     -1.73101614	    -61.57497383	      4.59219891	      6.64494849	    -13.35367595	      5.51716002	      4.60730330
      2.49000000	     -1.94256977	     -5.33340865	    -46.83338274	     -0.38748493	      1.01106212	      0.06609715	      8.76542962	     13.79462388	     -5.47717470	    -18.62014323	      6.82561932	     -8.16060159	     17.23847040	    -11.11786217	     -1.55412529	    -60.34579564	      4.93785007	      6.16396270	    -13.36553513	      5.53602626	      5.35385849
      2.50000000	     -2.11458434	     -5.33826454	    -47.66189449	     -0.38345506	      1.01144169	      0.07214207	      8.06446874	     14.06872696	     -4.65345075	    -18.16788998	      6.97416360	     -8.20241581	     18.03457915	    -11.33756192	     -1.39236238	    -58.95356585	      5.29499798	      5.68739613	    -13.37560280	      5.57492508	      6.07958051
      2.51000000	     -2.29881690	     -5.34069682	    -48.48929534	     -0.37946368	      1.01169211	      0.07810415	      7.40401212	     14.33162667	     -3.81987424	    -17.77456916	      7.13666859	     -8.25098507	     18.78754635	    -11.55190539	     -1.24510275	    -57.41799020	      5.66037717	      5.23456598	    -13.39117142	      5.63561729	      6.79456807
      2.52000000	     -2.48416457	     -5.33682450	    -49.31096146	     -0.37546491	      1.01184474	      0.08401066	      6.76825855	     14.57212271	     -2.98169970	    -17.42541012	      7.32025444	     -8.30334342	     19.48659084	    -11.75463323	     -1.14021435	    -55.74564690	      6.02166847	      4.78523921	    -13.41014571	      5.71020551	      7.46961957
      2.53000000	     -2.64809409	     -5.33155065	    -50.11061079	     -0.37141032	      1.01195354	      0.08986847	      6.12787581	     14.77324769	     -2.15743999	    -17.10129709	      7.52447192	     -8.35603747	     20.10998079	    -11.92923725	     -1.09451117	    -53.94228458	      6.35191361	      4.27786502	    -13.44751973	      5.78378365	      8.07504587
      2.54000000	     -2.84596706	     -5.29849295	    -50.90318529	     -0.36735646	      1.01189547	      0.09564142	      5.57944100	     14.96442434	     -1.34597579	    -16.86196739	      7.76506004	     -8.40110946	     20.74219917	    -12.09211837	     -1.07898857	    -52.06076842	      6.67473902	      4.02160100	    -13.44845585	      5.88324354	      8.66805848
      2.55000000	     -2.99983050	     -5.26231000	    -51.66653729	     -0.36322512	      1.01185058	      0.10134183	      5.01689170	     15.09907308	     -0.52804856	    -16.65049357	      8.01294374	     -8.43670418	     21.28597726	    -12.18960120	     -1.11659714	    -50.06882647	      6.91098310	      3.74714198	    -13.48659882	      5.96202993	      9.20192910
      2.56000000	     -3.10460780	     -5.24839677	    -52.38561451	     -0.35898416	      1.01185356	      0.10695920	      4.41562187	     15.18394952	      0.24332809	    -16.45545472	      8.26230767	     -8.45227107	     21.72364651	    -12.21763167	     -1.17436510	    -47.98195119	      7.06705395	      3.46611404	    -13.58638842	      6.03698225	      9.65867498
      2.57000000	     -3.24282790	     -5.15877145	    -53.08319480	     -0.35471487	      1.01165694	      0.11251477	      3.94663399	     15.23151771	      0.97400658	    -16.33581718	      8.57714502	     -8.46920712	     22.21628409	    -12.19114853	     -1.26265064	    -45.84987410	      7.16858105	      3.45869899	    -13.59542037	      6.10203703	     10.06904001
      2.58000000	     -3.32489882	     -5.10664429	    -53.73692303	     -0.35032551	      1.01154675	      0.11798762	      3.41623842	     15.23634184	      1.68167430	    -16.21957186	      8.86786860	     -8.46404906	     22.58835449	    -12.08897462	     -1.34864129	    -43.64400689	      7.18318560	      3.56805677	    -13.68667379	      6.16747834	     10.42055421
      2.59000000	     -3.39825072	     -5.02928743	    -54.33779270	     -0.34585177	      1.01136687	      0.12343310	      2.91884736	     15.20329799	      2.33116375	    -16.12007857	      9.18365257	     -8.45479993	     22.94080858	    -11.91718500	     -1.42587913	    -41.39087870	      7.12812464	      3.87318003	    -13.75571186	      6.21885815	     10.68858954
      2.60000000	     -3.45998855	     -4.92885610	    -54.89014435	     -0.34128261	      1.01112111	      0.12883843	      2.45283304	     15.13203108	      2.92830612	    -16.04050570	      9.51802088	     -8.44359666	     23.27141367	    -11.67020924	     -1.47198035	    -39.10268989	      7.00439060	      4.35470983	    -13.80906668	      6.25775071	     10.89150367
      2.61000000	     -3.50938766	     -4.81113911	    -55.39089228	     -0.33660200	      1.01081002	      0.13420526	      2.01736359	     15.02714223	      3.47519781	    -15.99055343	      9.87085981	     -8.42957909	     23.57672856	    -11.35196010	     -1.47263769	    -36.78916250	      6.82675880	      4.95740062	    -13.85190642	      6.29236432	     11.02048850
      2.62000000	     -3.55221364	     -4.69838384	    -55.83146742	     -0.33181705	      1.01044962	      0.13960508	      1.56522148	     14.91051664	      3.96231705	    -15.91196028	     10.22924505	     -8.40038972	     23.84677871	    -10.99123578	     -1.42110522	    -34.46734656	      6.62715496	      5.73371164	    -13.89365218	      6.32862103	     11.08350614
      2.63000000	     -3.58932217	     -4.57650275	    -56.22990771	     -0.32693812	      1.01001259	      0.14502036	      1.13083157	     14.77574471	      4.40872782	    -15.85164791	     10.61166678	     -8.36318419	     24.09230801	    -10.58426085	     -1.31559548	    -32.14996372	      6.41249888	      6.53143484	    -13.92445311	      6.36407937	     11.09324795
      2.64000000	     -3.62471289	     -4.45955840	    -56.59121954	     -0.32199304	      1.00950498	      0.15049357	      0.69018382	     14.63661094	      4.81448230	    -15.78640273	     11.01046075	     -8.31287856	     24.30795725	    -10.15694473	     -1.16353494	    -29.85414710	      6.20113241	      7.34331057	    -13.95358913	      6.40066614	     11.06429823
      2.65000000	     -3.65956025	     -4.35237020	    -56.92559608	     -0.31699590	      1.00892406	      0.15605547	      0.23944200	     14.49981929	      5.19358101	    -15.72118161	     11.42245703	     -8.25126151	     24.49370668	     -9.72494429	     -0.98481339	    -27.60159203	      6.01462136	      8.12944064	    -13.98423190	      6.44109255	     11.00012609
      2.66000000	     -3.69881021	     -4.25393708	    -57.24316461	     -0.31194503	      1.00826724	      0.16172453	     -0.22570608	     14.36668100	      5.54559876	    -15.64610556	     11.84409541	     -8.18116536	     24.65786895	     -9.30096329	     -0.79452685	    -25.41180912	      5.85269613	      8.87705736	    -14.01019089	      6.48714835	     10.92632934
      2.67000000	     -3.74119324	     -4.16724441	    -57.55333146	     -0.30687295	      1.00753383	      0.16751372	     -0.70361229	     14.24054935	      5.88413404	    -15.57326317	     12.26828589	     -8.10779339	     24.80045492	     -8.89574885	     -0.61138381	    -23.30062363	      5.73877692	      9.56582988	    -14.03781591	      6.53454821	     10.84320600
      2.68000000	     -3.78923358	     -4.09154702	    -57.86471229	     -0.30177775	      1.00672595	      0.17343200	     -1.19506233	     14.12170684	      6.21123259	    -15.49978215	     12.68867777	     -8.03208743	     24.92574234	     -8.51614271	     -0.44555357	    -21.28258437	      5.67894408	     10.20264176	    -14.06387208	      6.58587795	     10.76628020
      2.69000000	     -3.84662633	     -4.02802628	    -58.18169238	     -0.29666999	      1.00584618	      0.17948588	     -1.70341601	     14.01434530	      6.53657720	    -15.41878749	     13.09954258	     -7.95111080	     25.03828573	     -8.16980873	     -0.29624593	    -19.37162002	      5.67967849	     10.80034400	    -14.08674454	      6.64275765	     10.70206209
      2.70000000	     -3.90136050	     -3.96239811	    -58.51919532	     -0.29156459	      1.00489528	      0.18566607	     -2.20404372	     13.89788518	      6.84734301	    -15.36689391	     13.50884925	     -7.87422948	     25.13305960	     -7.84355197	     -0.15953547	    -17.56183840	      5.72818648	     11.30858306	    -14.10314670	      6.68520144	     10.65919994
      2.71000000	     -3.96677087	     -3.91479471	    -58.86835108	     -0.28645740	      1.00389171	      0.19197547	     -2.72974989	     13.79854844	      7.18903001	    -15.30328096	     13.90044959	     -7.78202979	     25.20822270	     -7.55792708	      0.00362596	    -15.87290789	      5.83553837	     11.79972850	    -14.12327795	      6.73991131	     10.61528603
      2.72000000	     -4.04083693	     -3.86793320	    -59.23634445	     -0.28136202	      1.00281978	      0.19840608	     -3.24930384	     13.70391414	      7.53716674	    -15.25848157	     14.28768571	     -7.68989931	     25.27108900	     -7.30578328	      0.21813545	    -14.30442858	      5.96355851	     12.20609717	    -14.13274204	      6.79296613	     10.58123785
      2.73000000	     -4.12200826	     -3.83836770	    -59.61738465	     -0.27626814	      1.00170964	      0.20497384	     -3.78959520	     13.62159665	      7.89371313	    -15.21177895	     14.64629393	     -7.57700529	     25.30270626	     -7.09551488	      0.51706352	    -12.86457400	      6.13161610	     12.57172043	    -14.14601843	      6.85079611	     10.56248947
      2.74000000	     -4.21487754	     -3.80800880	    -60.01395191	     -0.27117788	      1.00053761	      0.21166759	     -4.31880804	     13.54777196	      8.26030471	    -15.18913509	     14.99219338	     -7.46372689	     25.32149054	     -6.92427398	      0.90580856	    -11.56505144	      6.28780725	     12.83155762	    -14.14438921	      6.91020419	     10.55251573
      2.75000000	     -4.36104879	     -3.75863711	    -60.43006585	     -0.26611579	      0.99923069	      0.21848972	     -4.80139229	     13.51249911	      8.63964118	    -15.18122171	     15.34961887	     -7.39308186	     25.38837063	     -6.82314354	      1.40203412	    -10.45932941	      6.41362821	     12.96370362	    -14.08334122	      7.00117858	     10.55439290
      2.76000000	     -4.43680304	     -3.77599094	    -60.87411385	     -0.26101794	      0.99807171	      0.22551944	     -5.40227450	     13.43634804	      9.01641548	    -15.16655053	     15.61975950	     -7.20801841	     25.31005047	     -6.73466705	      1.92139317	     -9.50596223	      6.57718678	     13.08965626	    -14.11829695	      7.04130563	     10.57866094
      2.77000000	     -4.56492977	     -3.77089595	    -61.33449472	     -0.25593246	      0.99678773	      0.23268246	     -5.95007208	     13.39616838	      9.40810154	    -15.17835057	     15.89418313	     -7.06265600	     25.29625013	     -6.71040597	      2.48629744	     -8.80236605	      6.70901947	     13.11852477	    -14.08924700	      7.11190831	     10.61873624
      2.78000000	     -4.72394632	     -3.75813311	    -61.81034248	     -0.25083625	      0.99543637	      0.23999292	     -6.47623767	     13.37711554	      9.79976337	    -15.20795482	     16.16286297	     -6.96726333	     25.31657884	     -6.73597476	      3.04760718	     -8.35550777	      6.81576350	     13.11927112	    -14.02329297	      7.20163282	     10.67407288
